<?xml version="1.0"?>
<svg id="Layer_2" data-name="Layer 2" xmlns="http://www.w3.org/2000/svg" viewBox="0 0 260.83 113.55">
  <defs>
    
  </defs>
  <g id="Layer_1-2" data-name="Layer 1">
    <path fill="currentColor" d="M0,113.55c2.18-21.06,21.77-34.13,40.24-40.58,18.98-7,39.36-10.51,59.61-9.1,26.51,1.11,52.75,10.19,79.29,6.97,13.03-1.41,26-4.9,38.12-9.9,24.55-10.28,43.82-33.46,43.46-60.95,1.67,28.04-17.39,52.49-42.04,64.03-12.38,5.66-25.42,9.85-38.95,11.72-13.51,1.94-27.36.59-40.68-1.74-26.24-5.25-52.53-9.02-79.16-5.01C34.86,72.6,3.76,85.26,0,113.55h0Z"></path>
  </g>
</svg>